<svg width="150" height="150" viewBox="0 0 150 150" fill="none" xmlns="http://www.w3.org/2000/svg">
<rect x="0.5" y="0.5" width="149" height="149" fill="#1E1D2A" stroke="#1E1D2A"/>
<g clip-path="url(#clip0_8_390)">
<path d="M42.2727 35C38.2546 35 35 38.2545 35 42.2727V107.727C35 111.745 38.2546 115 42.2727 115H107.727C111.745 115 115 111.745 115 107.727V42.2727C115 38.2545 111.745 35 107.727 35H42.2727ZM91.946 54.0838C94.2079 54.0838 95.7528 55.5256 95.7528 57.4929C95.7528 59.4602 94.2079 60.902 91.946 60.902C89.7097 60.902 88.1463 59.4602 88.1463 57.4929C88.1463 55.5256 89.7097 54.0838 91.946 54.0838ZM63.3381 56.6477H70.5469L83.2955 92.5213H76.4134L73.3807 83.3523H60.1847L57.0952 92.5213H50.6108L63.3381 56.6477ZM66.5909 63.4801L61.6761 78.2742H71.8892L67.0171 63.4801H66.5909ZM88.8921 65.3267H95.0284V92.5213H88.8921V65.3267Z" fill="#A48EF7"/>
</g>
<defs>
<clipPath id="clip0_8_390">
<rect width="80" height="80" fill="white" transform="translate(35 35)"/>
</clipPath>
</defs>
</svg>
