<svg width="150" height="150" viewBox="0 0 150 150" fill="none" xmlns="http://www.w3.org/2000/svg">
<rect x="0.5" y="0.5" width="149" height="149" fill="#1E1D2A" stroke="#1E1D2A"/>
<g clip-path="url(#clip0_3_674)">
<path d="M104.553 106.41L110.93 35H40L40.0833 35.9267L46.3667 106.42L46.42 107.007L75.1967 115H75.65L104.493 107L104.547 106.413L104.553 106.41ZM75.5267 50.5967H96.1367L95.5167 57.7967L75.1833 66.8367L75.5233 68.4633H94.6033L92.4067 93.6333L75.4533 98.3333L58.5067 93.64L57.44 81.5867H64.4167L64.9767 87.6967L65.03 88.29L75.3133 91.0233H75.7567L85.9267 88.1967L85.9767 87.6067L86.9367 76.32L87.0133 75.4H56.8567L56.2233 68.1567L77.2533 59.1533L76.92 57.52H55.32L54.7033 50.5867H75.5033L75.5267 50.5967Z" fill="#A48EF7"/>
</g>
<defs>
<clipPath id="clip0_3_674">
<rect width="70" height="80" fill="white" transform="translate(40 35)"/>
</clipPath>
</defs>
</svg>
