<svg width="150" height="150" viewBox="0 0 150 150" fill="none" xmlns="http://www.w3.org/2000/svg">
<g clip-path="url(#clip0_8_369)">
<rect x="0.5" y="0.5" width="149" height="149" fill="#1E1D2A" stroke="#1E1D2A"/>
</g>
<path d="M73.3478 35V59.3478H61.1739C54.4696 59.3478 49 53.8783 49 47.1739C49 40.4696 54.4696 35 61.1739 35H73.3478ZM73.3478 62.8261V87.1739H61.1739C54.4696 87.1739 49 81.7043 49 75C49 68.2957 54.4696 62.8261 61.1739 62.8261H73.3478ZM73.3478 90.6522V102.826C73.3478 109.53 67.8783 115 61.1739 115C54.4696 115 49 109.53 49 102.826C49 96.1217 54.4696 90.6522 61.1739 90.6522H73.3478ZM101.174 47.1739C101.174 53.8783 95.7043 59.3478 89 59.3478H76.8261V35H89C95.7043 35 101.174 40.4696 101.174 47.1739ZM89 62.8261C85.7713 62.8261 82.6748 64.1087 80.3917 66.3917C78.1087 68.6748 76.8261 71.7713 76.8261 75C76.8261 78.2287 78.1087 81.3252 80.3917 83.6083C82.6748 85.8913 85.7713 87.1739 89 87.1739C92.2287 87.1739 95.3252 85.8913 97.6083 83.6083C99.8913 81.3252 101.174 78.2287 101.174 75C101.174 71.7713 99.8913 68.6748 97.6083 66.3917C95.3252 64.1087 92.2287 62.8261 89 62.8261Z" fill="#A48EF7"/>
<defs>
<clipPath id="clip0_8_369">
<rect width="80" height="80" fill="white" transform="translate(35 35)"/>
</clipPath>
</defs>
</svg>
