<svg width="150" height="150" viewBox="0 0 150 150" fill="none" xmlns="http://www.w3.org/2000/svg">
<rect x="0.5" y="0.5" width="149" height="149" fill="#1E1D2A" stroke="#1E1D2A"/>
<g clip-path="url(#clip0_3_672)">
<path d="M109.869 70.3437L79.6562 40.1312C78.375 38.8437 76.6875 38.2 75 38.2C73.3125 38.2 71.625 38.8437 70.3437 40.1312L64.3687 46.1062L71.7625 53.5C74.2187 52.0562 77.4187 52.3687 79.525 54.475C81.6312 56.5812 81.9375 59.7812 80.4937 62.2312L87.7625 69.5C90.2187 68.0562 93.4187 68.3687 95.525 70.475C98.025 72.975 98.025 77.025 95.525 79.525C93.025 82.025 88.975 82.025 86.475 79.525C84.3687 77.4187 84.0562 74.2187 85.5 71.7625L78.2312 64.4937C77.7125 64.8 77.1687 65.025 76.6 65.1687V84.825C79.3562 85.5375 81.4 88.0187 81.4 91C81.4 94.5375 78.5375 97.4 75 97.4C71.4625 97.4 68.6 94.5375 68.6 91C68.6 88.0187 70.6437 85.5375 73.4 84.825V65.1687C72.3312 64.8937 71.3125 64.3625 70.475 63.525C68.3687 61.4187 68.0625 58.2187 69.5062 55.7687L62.1062 48.3687L40.1312 70.3437C37.5562 72.9125 37.5562 77.0875 40.1312 79.6562L70.3437 109.869C71.625 111.156 73.3125 111.8 75 111.8C76.6875 111.8 78.375 111.156 79.6562 109.869L109.869 79.6562C112.444 77.0875 112.444 72.9125 109.869 70.3437Z" fill="#A48EF7"/>
</g>
<defs>
<clipPath id="clip0_3_672">
<rect width="80" height="80" fill="white" transform="translate(35 35)"/>
</clipPath>
</defs>
</svg>
