<svg width="150" height="150" viewBox="0 0 150 150" fill="none" xmlns="http://www.w3.org/2000/svg">
<rect x="0.5" y="0.5" width="149" height="149" fill="#1E1D2A" stroke="#1E1D2A"/>
<g clip-path="url(#clip0_8_381)">
<path d="M70.5099 35.2856C52.0725 37.3486 37.2425 52.6152 35.2384 71.1825C33.2343 90.5752 44.0563 107.905 60.4896 114.506C61.692 114.919 62.8944 114.094 62.8944 112.443V105.842C62.8944 105.842 61.2912 106.254 59.2871 106.254C53.6758 106.254 51.2709 101.303 50.8701 98.4147C50.4693 96.7643 49.6676 95.5265 48.4652 94.2886C47.2628 93.876 46.862 93.876 46.862 93.4634C46.862 92.6382 48.0644 92.6382 48.4652 92.6382C50.8701 92.6382 52.8741 95.5265 53.6758 96.7643C55.6798 100.065 58.0847 100.89 59.2871 100.89C60.8904 100.89 62.0928 100.478 62.8944 100.065C63.2952 97.1769 64.4977 94.2886 66.9026 92.6382C57.6839 90.5752 50.8701 85.2112 50.8701 76.1339C50.8701 71.5952 52.8741 67.0565 55.6798 63.7556C55.279 62.9304 54.8782 60.8673 54.8782 57.9791C54.8782 56.3286 54.8782 53.853 56.0806 51.3773C56.0806 51.3773 61.692 51.3773 67.3034 56.7412C69.3074 55.916 72.1131 55.5034 74.9188 55.5034C77.7245 55.5034 80.5302 55.916 82.935 56.7412C88.1456 51.3773 94.1578 51.3773 94.1578 51.3773C94.9594 53.853 94.9594 56.3286 94.9594 57.9791C94.9594 61.2799 94.5586 62.9304 94.1578 63.7556C96.9635 67.0565 98.9675 71.1825 98.9675 76.1339C98.9675 85.2112 92.1537 90.5752 82.935 92.6382C85.3399 94.7012 86.9432 98.4147 86.9432 102.128V112.856C86.9432 114.094 88.1456 115.332 89.7488 114.919C104.579 108.73 115 93.876 115 76.5465C115 51.7899 94.5586 32.3973 70.5099 35.2856Z" fill="#A48EF7"/>
</g>
<defs>
<clipPath id="clip0_8_381">
<rect width="80" height="80" fill="white" transform="translate(35 35)"/>
</clipPath>
</defs>
</svg>
