<svg width="150" height="150" viewBox="0 0 150 150" fill="none" xmlns="http://www.w3.org/2000/svg">
<rect x="0.5" y="0.5" width="149" height="149" fill="#1E1D2A" stroke="#1E1D2A"/>
<g clip-path="url(#clip0_3_673)">
<path fill-rule="evenodd" clip-rule="evenodd" d="M35 35H115V115H35V35ZM96.1567 102.067C92.4467 102.067 90.35 100.133 88.74 97.5L82.63 101.05C84.8367 105.41 89.3467 108.737 96.33 108.737C103.47 108.737 108.787 105.03 108.787 98.26C108.787 91.9833 105.18 89.1933 98.7933 86.45L96.9133 85.6467C93.6867 84.2467 92.29 83.3367 92.29 81.08C92.29 79.2567 93.69 77.86 95.89 77.86C98.0467 77.86 99.4367 78.77 100.727 81.08L106.58 77.3233C104.103 72.9667 100.67 71.3033 95.89 71.3033C89.1767 71.3033 84.88 75.5967 84.88 81.2367C84.88 87.3533 88.48 90.25 93.9067 92.56L95.7867 93.3667C99.2167 94.8667 101.26 95.78 101.26 98.3567C101.26 100.51 99.27 102.067 96.1567 102.067ZM67.0233 102.017C64.44 102.017 63.3633 100.25 62.1833 98.15L56.0633 101.857C57.8367 105.61 61.3233 108.723 67.34 108.723C74.0033 108.723 78.5667 105.18 78.5667 97.3967V71.73H71.05V97.2967C71.05 101.053 69.49 102.017 67.02 102.017H67.0233Z" fill="#A48EF7"/>
</g>
<defs>
<clipPath id="clip0_3_673">
<rect width="80" height="80" fill="white" transform="translate(35 35)"/>
</clipPath>
</defs>
</svg>
