<svg width="150" height="150" viewBox="0 0 150 150" fill="none" xmlns="http://www.w3.org/2000/svg">
<rect x="0.5" y="0.5" width="149" height="149" fill="#1E1D2A" stroke="#1E1D2A"/>
<g clip-path="url(#clip0_8_364)">
<path d="M42.2727 35C38.2546 35 35 38.2545 35 42.2727V107.727C35 111.745 38.2546 115 42.2727 115H107.727C111.745 115 115 111.745 115 107.727V42.2727C115 38.2545 111.745 35 107.727 35H42.2727ZM49.5455 56.7898H64.0128C71.1728 56.7898 76.0725 61.6877 76.0725 68.9205C76.0725 76.0295 70.994 80.902 63.7358 80.902H55.9588V92.6634H49.5455V56.7898ZM55.9588 62.1591V75.5824H62.3011C66.8757 75.5824 69.5597 73.1968 69.5597 68.9205C69.5597 64.5241 66.9443 62.1591 62.3225 62.1591H55.9588ZM90.2983 64.9148C96.7601 64.9148 100.817 67.7747 101.264 72.7202H95.4759C95.0286 70.8074 93.2104 69.5881 90.3267 69.5881C87.5194 69.5881 85.4048 70.9341 85.4048 72.8977C85.4048 74.4395 86.6973 75.3832 89.4318 76.0014L94.2259 77.0952C99.4222 78.2624 101.832 80.5028 101.832 84.5028C101.832 89.7283 97.034 93.2102 90.2486 93.2102C83.4631 93.2102 79.1872 90.2722 78.7145 85.3267H84.8082C85.4046 87.3413 87.3141 88.5369 90.3977 88.5369C93.5032 88.5369 95.6676 87.1708 95.6676 85.1562C95.6676 83.6144 94.5031 82.6413 91.9176 82.0668L87.0952 80.9517C81.8734 79.759 79.4176 77.3476 79.4176 73.2457C79.4176 68.3221 83.8838 64.9148 90.2983 64.9148Z" fill="#A48EF7"/>
</g>
<defs>
<clipPath id="clip0_8_364">
<rect width="80" height="80" fill="white" transform="translate(35 35)"/>
</clipPath>
</defs>
</svg>
