<svg width="150" height="150" viewBox="0 0 150 150" fill="none" xmlns="http://www.w3.org/2000/svg">
<rect x="0.5" y="0.5" width="149" height="149" fill="#1E1D2A" stroke="#1E1D2A"/>
<g clip-path="url(#clip0_8_374)">
<path d="M115 50.798V98.202C115 100.537 113.537 102.615 111.333 103.387L95 111L96.4815 91.0491V57.9509L95 38L111.333 45.6126C113.537 46.3849 115 48.4627 115 50.798Z" fill="#A48EF7"/>
<path d="M45.1425 99.2353L96 60.4656V40.6725C96 38.2145 92.9852 37.0655 91.372 38.908L36.3096 89.6803C34.4787 91.3833 34.5825 94.3316 36.5273 95.9012C36.5273 95.9012 39.2207 98.429 40.1951 99.1307C41.6924 100.208 43.6595 100.331 45.1425 99.2353Z" fill="#A48EF7"/>
<path d="M45.1425 48.777L96 88.172V108.284C96 110.782 92.9852 111.95 91.372 110.077L36.3096 58.4861C34.4787 56.7557 34.5825 53.7598 36.5273 52.1649C36.5273 52.1649 39.2207 49.5964 40.1951 48.8834C41.6924 47.7888 43.6595 47.6637 45.1425 48.777Z" fill="#A48EF7"/>
</g>
<defs>
<clipPath id="clip0_8_374">
<rect width="80" height="80" fill="white" transform="translate(35 35)"/>
</clipPath>
</defs>
</svg>
