<svg width="150" height="150" viewBox="0 0 150 150" fill="none" xmlns="http://www.w3.org/2000/svg">
<rect x="0.5" y="0.5" width="149" height="149" fill="#1E1D2A" stroke="#1E1D2A"/>
<g clip-path="url(#clip0_8_359)">
<path d="M35 35V115H115V35H35ZM67.3289 94.1111L62.12 80.8578L56.9422 94.1111H48.0578L57.1733 74.9956L48.24 56.1956H57.0178L62.12 69.2178L67.2222 56.1956H76L67.0933 74.9956L76.2089 94.1111H67.3289ZM100.067 94.1111H93.3733L93.0356 91.2444C91.5244 93.5022 89.5822 94.6311 87.2 94.6311C84.2489 94.6311 81.9956 93.5022 80.44 91.2444C78.8844 88.9867 78.0933 85.6711 78.0578 81.2978V79.1644C78.0578 74.5467 78.84 71.1022 80.4 68.8267C81.96 66.5511 84.2356 65.4133 87.2222 65.4133C89.3911 65.4133 91.2 66.3511 92.64 68.2267V54.1111H100.062V94.1111H100.067ZM89.36 71.5822C88.0044 71.5822 87.0178 72.1289 86.3911 73.2222C85.7644 74.3156 85.4533 76.2622 85.4533 79.0578V81.0089C85.4533 83.7867 85.7467 85.7289 86.3378 86.8311C86.9289 87.9333 87.9244 88.4844 89.3333 88.4844C90.7911 88.4844 91.8933 87.8356 92.64 86.5333V73.6667C91.9156 72.28 90.8222 71.5822 89.36 71.5822Z" fill="#A48EF7"/>
</g>
<defs>
<clipPath id="clip0_8_359">
<rect width="80" height="80" fill="white" transform="translate(35 35)"/>
</clipPath>
</defs>
</svg>
